<svg xmlns="http://www.w3.org/2000/svg" viewBox="0 0 228.64 191.82"><defs><style>.cls-1{fill:#231815;}.cls-2{fill:#f4b4d0;}</style></defs><g id="レイヤー_2" data-name="レイヤー 2"><g id="レイヤー_1-2" data-name="レイヤー 1"><path class="cls-1" d="M18.77,174.51c-1.72.12-2.32.57-2.38,1.78,0,.66-.1,1.77-.1,4.17v3c0,2.71-.33,4.88-1.91,6.54a6.8,6.8,0,0,1-5,1.77,7.43,7.43,0,0,1-4.54-1.29c-1.63-1.24-2.41-3.08-2.41-6.25v-6.94c0-2.47-.23-2.64-2.39-2.83v-.81H7.4v.81c-2.16.15-2.38.36-2.38,2.83v6.89c0,3.82,1.81,6,5,6,3.76,0,5-2.4,5-6.85v-2.89c0-2.4-.08-3.43-.14-4.18-.08-1.23-.73-1.66-2.73-1.77v-.81h6.58Z"/><path class="cls-1" d="M40,187c-.16.71-.9,3.58-1.17,4.39H25.41v-.8c2.53-.2,2.72-.43,2.72-2.67V177.25c0-2.41-.31-2.55-2.32-2.74v-.81h8.44c2.62,0,3.66,0,4,0,0,.65.14,2.73.25,4.22l-.87.13a8.16,8.16,0,0,0-.88-2.15c-.44-.84-1-1-2.61-1H31.69c-.88,0-.94.07-.94.89v6h3c1.95,0,2.12-.41,2.46-2.28h.88v5.7h-.88c-.37-2-.59-2.26-2.49-2.26H30.75v5.3c0,1.9.5,2.14,1.92,2.17H35.1c1.64,0,1.94-.24,2.54-.95a11.73,11.73,0,0,0,1.5-2.55Z"/><path class="cls-1" d="M66.39,174.51c-2.24.22-2.45.36-2.45,2.65V188c0,2.29.24,2.39,2.45,2.62v.81H58.88v-.81c2.24-.27,2.45-.33,2.45-2.62v-5.39h-9V188c0,2.27.22,2.36,2.42,2.62v.81H47.3v-.81c2.17-.24,2.43-.33,2.43-2.62V177.16c0-2.29-.25-2.44-2.43-2.65v-.81h7.48v.81c-2.16.19-2.42.38-2.42,2.65v4.26h9v-4.26c0-2.27-.3-2.45-2.45-2.65v-.81h7.51Z"/><path class="cls-1" d="M83.31,191.43v-.81c1.77-.22,1.94-.5,1.56-1.56s-.86-2.36-1.41-4H77.68c-.42,1.16-.82,2.21-1.18,3.28-.6,1.77-.17,2,2.06,2.24v.81H72.18v-.81c1.72-.21,2.15-.42,3.1-2.84l5.65-14.28.95-.18c1.73,4.68,3.6,9.78,5.33,14.47.9,2.4,1.14,2.62,3.05,2.83v.81Zm-2.67-14.26c-.85,2.27-1.75,4.64-2.54,6.76h5Z"/><path class="cls-1" d="M112.69,191.64c-.32,0-.62,0-1,0-2.26-.14-3.31-.7-4.44-2.29-1-1.41-2-3.12-2.86-4.56-.52-.84-.88-1-2.18-1h-.88V188c0,2.29.3,2.44,2.45,2.66v.81H96.34v-.81c2.23-.24,2.43-.37,2.43-2.66V177.15c0-2.29-.29-2.41-2.43-2.64v-.81h7.13a7.83,7.83,0,0,1,4.46,1,4.09,4.09,0,0,1,1.85,3.61c0,2.36-1.52,3.79-3.49,4.64.47.84,1.63,2.66,2.44,3.89a24.81,24.81,0,0,0,2.14,2.81,3.91,3.91,0,0,0,1.94,1.25Zm-10.12-8.87a4.34,4.34,0,0,0,2.94-.78,3.85,3.85,0,0,0,1.46-3.32,3.61,3.61,0,0,0-3.88-4,2.29,2.29,0,0,0-1.41.28c-.24.18-.32.46-.32,1.14v6.66Z"/><path class="cls-1" d="M127.8,191.43v-.81c1.76-.22,1.94-.5,1.56-1.56s-.86-2.36-1.41-4h-5.78c-.42,1.16-.82,2.21-1.18,3.28-.6,1.77-.17,2,2.05,2.24v.81h-6.37v-.81c1.71-.21,2.15-.42,3.1-2.84l5.65-14.28,1-.18c1.72,4.68,3.6,9.78,5.33,14.47.9,2.4,1.14,2.62,3.05,2.83v.81Zm-2.67-14.26-2.55,6.76h5Z"/><path class="cls-1" d="M160.31,173.7c3.78,0,6.23.76,7.93,2.38a7.84,7.84,0,0,1,2.35,5.85,8.89,8.89,0,0,1-3.41,7.32c-2.07,1.55-4.7,2.18-8,2.18h-6.58v-.81c2.29-.21,2.43-.41,2.43-2.65V177.19c0-2.34-.33-2.47-2.43-2.68v-.81Zm-2.67,14.06c0,2,.81,2.61,2.84,2.61,4.69,0,7.13-3.21,7.13-8.05,0-2.9-1-5.17-3-6.45a7.84,7.84,0,0,0-4.61-1.17,3.57,3.57,0,0,0-2.06.38c-.25.18-.35.51-.35,1.52Z"/><path class="cls-1" d="M192.8,187c-.16.71-.9,3.58-1.17,4.39H178.22v-.8c2.52-.2,2.71-.43,2.71-2.67V177.25c0-2.41-.31-2.55-2.32-2.74v-.81h8.44c2.62,0,3.66,0,4,0,0,.65.14,2.73.25,4.22l-.86.13a8.51,8.51,0,0,0-.88-2.15c-.45-.84-1-1-2.62-1H184.5c-.88,0-.95.07-.95.89v6h3c1.95,0,2.11-.41,2.45-2.28h.88v5.7H189c-.37-2-.59-2.26-2.48-2.26h-2.94v5.3c0,1.9.5,2.14,1.93,2.17h2.42c1.64,0,1.94-.24,2.54-.95a11.76,11.76,0,0,0,1.51-2.55Z"/><path class="cls-1" d="M213.93,186.85c-.17.91-1,3.75-1.25,4.58H199.85v-.81c2.46-.23,2.68-.37,2.68-2.69V177.19c0-2.32-.27-2.47-2.43-2.68v-.81h7.53v.81c-2.18.22-2.47.34-2.47,2.68v11c0,1.64.19,2.07,1.73,2.1l2,0c1.43,0,1.83-.2,2.47-.89a9.51,9.51,0,0,0,1.67-2.81Z"/><path class="cls-1" d="M221.13,191.43v-.81c2.21-.23,2.43-.35,2.43-2.66V177.21c0-2.34-.23-2.47-2.43-2.7v-.81h7.51v.81c-2.22.24-2.45.36-2.45,2.7V188c0,2.33.22,2.42,2.45,2.66v.81Z"/><path class="cls-2" d="M65.82,79.85c-1.45-4.8-5.49-8.47-10-10.63s-9.52-3-14.46-3.88c-3.06-.53-6.24-1-9.24-.24a10.86,10.86,0,0,0-6.48,5c-2.29,4-1.75,9.13.27,13.27s5.34,7.48,8.64,10.7C38.6,98,42.89,102,48.21,103.92a21.13,21.13,0,0,0,16.62-1.07A11.83,11.83,0,0,0,69.2,99.3c1.71-2.43,2-5.61,1.71-8.57a28.61,28.61,0,0,0-21-24.49"/><path class="cls-2" d="M97.45,109.23c-3.3-1.26-6.24-4.06-6.68-7.56s2.43-7.36,6-7.12A24.15,24.15,0,0,1,97.45,109.23Z"/><path class="cls-2" d="M146.24,102.27c2.25-1.71,2.5-5.3.93-7.65a8.76,8.76,0,0,0-7.37-3.49,18.21,18.21,0,0,0-8.08,2.37,14.5,14.5,0,0,0-6.12,5.11c-1.37,2.32-1.48,5.56.37,7.52,1.09,1.16,2.67,1.72,4,2.6,1.71,1.14,3.06,2.86,5,3.53,3.17,1.1,6.55-1,8.81-3.51C147.2,105,147.56,107.19,146.24,102.27Z"/><path class="cls-2" d="M114.51,8.43l.92,6c.57,3.78,1.12,7.78-.39,11.28a20,20,0,0,1-3.83,5.33c-1.91,2.1-4.1,4.3-6.92,4.58-3.24.31-6.22-2.17-7.55-5.13s-1.39-6.32-1.43-9.57c0-3.69-.07-7.53,1.57-10.84a12,12,0,0,1,14.37-5.77,4.86,4.86,0,0,1,2.63,1.9A6,6,0,0,1,114.51,8.43Z"/><path class="cls-2" d="M179.34,75a28.61,28.61,0,0,1-9.12.52c-3-.47-6-2-7.48-4.73a9.74,9.74,0,0,1,.4-9A21.1,21.1,0,0,1,169.55,55a53.24,53.24,0,0,1,25.63-10,8.17,8.17,0,0,1,3,.08,6.43,6.43,0,0,1,3.88,3.85c1.91,4.39.89,9.45-.45,14-1.05,3.6-2.54,7.47-5.84,9.26A15.61,15.61,0,0,1,191,73.57C183.69,74.79,186.64,73.74,179.34,75Z"/><path d="M157.82,78.87c.59-.77,1.41-.2,2.2-.16,2.09.1,4.19.1,6.28.12l5.41,0h1.06c-.36-1.62-.63-3.14-1-4.62-1-3.48-1.83-7-3-10.4a24.05,24.05,0,0,0-3-5.39c-1.41-2.07-3-4-4.57-6a6.76,6.76,0,0,0-.61-.53c-1.32,1.12-2.67,2.24-4,3.41a2.46,2.46,0,0,1-2.34.34,1.69,1.69,0,0,1-1-1.25A2.4,2.4,0,0,1,154,53a9.67,9.67,0,0,1,2.78-2c.84-.32,1.05-1,1.6-1.45a28,28,0,0,0-7.73-6.31c-3.06-1.59-6.23-2.9-9.4-4.22-1.59-.66-3.39-.84-5-1.5a26,26,0,0,0-8.72-1.52c-1.7-.09-3.39-.22-5.09-.31-1.26-.07-2.52-.17-3.78-.14a1.33,1.33,0,0,0-.89.77c-.4,1-.67,2.13-1,3.19a2.18,2.18,0,0,1-2.14,1.34,2.07,2.07,0,0,1-1.35-2.11,8.72,8.72,0,0,1,.61-1.85c.27-.6.2-.91-.49-.94a12.63,12.63,0,0,0-5.86.77,14.75,14.75,0,0,1-2.87.59c-1.66.37-3.32.73-5,1.17a7,7,0,0,0-1.38.78c-.19.11-.39.31-.57.29-2.59-.31-4.74,1.11-7,1.85a56.88,56.88,0,0,0-7,2.83c-2.47,1.19-4.84,2.58-7.19,4-2,1.23-4,2.61-6,3.93C69,53,67.56,54,66.11,55a15.76,15.76,0,0,0-1.33,1.26c-1.41,1.29-2.87,2.54-4.23,3.87S58.18,62.57,57,63.84c-.8.88-1.55,1.8-2.42,2.81,1.11.65,2.05,1.21,3,1.75l3.67,2.08c.74.41,1.5.81,2.23,1.24a11.6,11.6,0,0,1,1.61,1,48.32,48.32,0,0,1,3.65,3.18,23.55,23.55,0,0,1,5,7.52c.67,1.62,1.3,3.27,1.82,4.94a23.17,23.17,0,0,1,.78,3.7,7,7,0,0,1-1.47,5.54c-.91,1.15-1.55,2.52-2.5,3.62a12.77,12.77,0,0,1-3.24,2.91,19.3,19.3,0,0,1-5,1.86,20.71,20.71,0,0,1-3.87.1,7.26,7.26,0,0,0-1.28.23c.78.84,1.51,1.63,2.22,2.43.31.35.56.74.84,1.11.12.17.21.42.38.49,3,1.36,5.57,3.5,8.76,4.4A37.58,37.58,0,0,0,77.1,116a30.13,30.13,0,0,0,4.44-.17,16.94,16.94,0,0,0,2.75.06,24.18,24.18,0,0,0,3.38-1.09,4.12,4.12,0,0,1,.69-.3c2.49-.28,4.38-1.73,6.28-3.17a6.8,6.8,0,0,0,.71-.78,31.15,31.15,0,0,0-3.19-2c-1.93-.91-3.85-1.85-5-3.71-2.39-3.84-3.28-7.43-.64-11.3a5.92,5.92,0,0,1,3.29-2.07,10.69,10.69,0,0,1,4.74-.13,5.62,5.62,0,0,1,4,2.85c.65,1.23,1.85,2.17,2.66,3.33a8.75,8.75,0,0,1,.85,2.19,5.88,5.88,0,0,1,.14.73,4.34,4.34,0,0,1,.25,1.58c-.55,2.09-.47,4.34-1.66,6.29a13.76,13.76,0,0,0-.67,2.39,2.81,2.81,0,0,1-.89,1.06,13.72,13.72,0,0,0-2,1.5c-1.52,1.88-3.75,2.71-5.65,4a1.13,1.13,0,0,1-.74.17c-1.49-.18-2.54.9-3.82,1.3a4.65,4.65,0,0,1-1.45.1c-2.2,0-4.41,0-6.59-.17-1.83-.17-3.62-.64-5.44-.95-.45-.08-.93,0-1.38-.1A19.78,19.78,0,0,1,65.48,115c-1.08-.67-2.2-1.25-3.34-1.81-2-1-3.27-2.79-4.65-4.44a6.48,6.48,0,0,1-.65-1.59l-.7.11a9.63,9.63,0,0,1-5.13-.36c-.17-.06-.39-.22-.5-.17-1.52.7-2.68-.46-4-.76s-2.72-.64-4.07-1a3.39,3.39,0,0,1-.68-.29c-.5-.26-1-.54-1.51-.77-1.49-.67-3.22-.71-4.54-1.85a12.1,12.1,0,0,0-2-1.09c-.38-.22-.72-.53-1.09-.77-.83-.53-1.69-1-2.5-1.55s-1.83-1.23-2.7-1.91-1.69-1.42-2.54-2.14a1.1,1.1,0,0,1-.3-.31c-.8-1.81-2.46-3-3.43-4.66a10,10,0,0,1-.65-2.24,2.24,2.24,0,0,0-.35-.85,4.48,4.48,0,0,1-.95-3.82c-.11-.66-.22-1.33-.32-2a11.38,11.38,0,0,0-.24-1.44,4.76,4.76,0,0,1,.58-3.81c.38-.66.46-1.47.89-2.2a22.68,22.68,0,0,1,3.2-4c.68-.72,1.76-.88,2.18-1.82.07-.16.43-.19.66-.25s.71-.06.79-.21c.6-1.29,1.89-1.55,3-2.08a4.45,4.45,0,0,1,1.5-.35c1.38-.14,2.75-.25,4.13-.35.68,0,1.37,0,2.05-.07a10.54,10.54,0,0,0,1.31-.27c1.25,1.29,3-.46,4.64.24,0,0,0,0,0,0l-.53.14c1.47.21,2.88.38,4.28.64s2.7.6,4,.9c1-.91,2.05-1.82,3-2.82a25.82,25.82,0,0,1,2-2.37c.9-.73,1.19-2,2.42-2.46.39-.14.48-1,.86-1.31,2.44-2.17,4.82-4.43,7.43-6.38s5.22-3.38,7.84-5.05c.51-.33,1-.68,1.51-1a33.91,33.91,0,0,1,8.88-4.19,26.32,26.32,0,0,0,3.21-1.65,2.91,2.91,0,0,1,.8-.32,18.32,18.32,0,0,1,1.93-.53c1.32,0,2.21-1,3.39-1.13.09,0,.17-.11.27-.17-1.11-2.07-2.23-4.1-3.29-6.16a17.16,17.16,0,0,1-1.58-5c-.23-1.32-.18-2.84-.86-3.88s0-1.7.21-2.53c.49-1.85.92-3.71,1.35-5.57a12,12,0,0,1,3.84-5.8c1.24-1.18,2.61-2.24,4-3.31a7.27,7.27,0,0,1,1.56-.94,14.13,14.13,0,0,1,2.17-.8c.87-.24,1.77-.35,2.64-.54a2.38,2.38,0,0,0,.56-.22,10,10,0,0,0,1.61-.18A21.64,21.64,0,0,1,110.3.32a12,12,0,0,1,2.51.42,2.41,2.41,0,0,0,1.35-.26c1.34-.73,1.62-.68,2.61.52a20.22,20.22,0,0,1,4.12,7.31c.19.67.44,1.33.66,2,0,.13.13.31.08.41-.77,1.75,0,3.57-.16,5.35-.14,2-.34,3.93-.58,5.89-.28,2.19-.7,4.35-1,6.53-.19,1.32-.3,2.66-.46,4,.87.07,1.84.18,2.81.23,2.27.12,4.54.17,6.81.34s4.35.42,6.53.64c.22,0,.53,0,.64.08,1.07,1.12,2.62,1,3.91,1.45a11.84,11.84,0,0,1,3,1,10.21,10.21,0,0,0,1.13.62c.22.12.48.4.66.35,1.78-.45,2.88,1,4.28,1.55A42.72,42.72,0,0,1,155,41.65a21.57,21.57,0,0,1,3.62,2.94c1,.91,1.75,2,2.77,2.9a1.82,1.82,0,0,0,1.73-.12A7.28,7.28,0,0,1,166,45.84a27.83,27.83,0,0,0,4.37-2,1.3,1.3,0,0,1,.4-.18c1.4-.24,2.81-.42,4.2-.7a9.59,9.59,0,0,0,1.48-.64,5.59,5.59,0,0,1,2.14-.72c2.44.23,4.72-.62,7.09-.82.64-.06,1.3,0,1.94,0a15.17,15.17,0,0,0,1.82-.46l3.12.48c.64-.26,1.63-1.13,2.81.1.26.26,1.08,0,1.64,0,.3,0,.76.05.87.23.58,1,1.58.78,2.43,1s1.91.73,2.86,1.1a1.8,1.8,0,0,0,.6.21,4,4,0,0,1,2.48.68c.72.51,1.75.56,2.48,1.05,2,1.37,4,3,4.91,5.21a6.68,6.68,0,0,1-.23,5.62c-.94,1.68-1.95,3.31-2.87,5-.31.57-.35,1.3-.7,1.83-1.38,2.11-2.72,4.27-4.29,6.23A29.87,29.87,0,0,1,202,72.19c-.29.26-.47.64-.77.88-2,1.63-3.79,3.44-6.27,4.35a24.91,24.91,0,0,0-2.73,1.38l-3,.67a4.35,4.35,0,0,0-.52.06c-.62.19-1.23.44-1.86.58a19.63,19.63,0,0,1-2.4.38c-.74.07-1.49,0-2.23.07-.9.06-2-.36-2.48,1a1.42,1.42,0,0,0-2.17-.11,2,2,0,0,0-.58,1.24c0,2,.07,4,.07,6,0,2.53,0,5.07-.13,7.61-.21,4.4-.37,8.81-2,13a10.27,10.27,0,0,0-.47,1.55,18.46,18.46,0,0,1-2.21,4.92,47.58,47.58,0,0,0-2.12,5.56,5.23,5.23,0,0,1-.62,1.14c-.69,1-1.37,1.92-2.14,2.8s-1.54,1.5-2.27,2.28a10,10,0,0,0-1.4,1.73,18.72,18.72,0,0,1-4.78,4.94c-1,.83-2,1.68-3.1,2.46a19.87,19.87,0,0,1-1.85,1.08,2.16,2.16,0,0,0-.43.29,23.12,23.12,0,0,1-2.71,2.71,14.21,14.21,0,0,1-2.89,1.17c-1.39.59-2.74,1.3-4.16,1.83-1.66.62-3.36,1.14-5.07,1.61s-3.32.77-5,1.16c-2.77.65-5.52,1.44-8.32,1.92a27.58,27.58,0,0,1-4.72,0c-1,0-2.09,0-3.14,0-1.91-.06-3.82-.21-5.73-.22-2.26,0-4.54.22-6.8.06a22,22,0,0,1-4-1.13c-.67-.18-1.37-.23-2-.4-1.83-.47-3.66-.92-5.46-1.49A30.73,30.73,0,0,1,90.75,144c-1.37-.58-2.81-1.68-4.13-1.57-1.48.11-2.12-.64-3.09-1.24-.64-.4-1.49-.46-2.18-.8-1.55-.77-3.06-1.62-4.57-2.46a6.94,6.94,0,0,1-.59-.51,9.27,9.27,0,0,0-.92-.51c-.39-.17-1-.19-1.16-.48a5,5,0,0,0-2.93-2c-.52-.15-.87-.86-1.38-1.17-1-.63-2.18-1.1-3.21-1.75A27,27,0,0,1,63.15,129c-.88-.77-1.47-1.88-2.35-2.66-1.44-1.28-3.08-2.33-4.5-3.63s-2.36-2.61-3.57-3.9c-1-1-2.06-2-3-3.07a9,9,0,0,1-1.49-1.84,1.27,1.27,0,0,1,.42-1.82,1.46,1.46,0,0,1,1.93.35c1.27,1.35,2.43,2.8,3.67,4.17A50,50,0,0,0,58.34,121c3.25,2.81,6.53,5.6,10,8.15a80.69,80.69,0,0,0,8.24,5.09,85.29,85.29,0,0,0,8.91,4.6c3.45,1.43,7.06,2.5,10.63,3.61,2.49.78,5,1.47,7.58,2a30.32,30.32,0,0,0,4.78.37c2,.11,3.91.16,5.86.26a48.72,48.72,0,0,0,13.25-1.15c2-.46,3.92-1.36,5.93-1.6a29.73,29.73,0,0,0,6.47-1.82c1.79-.64,3.51-1.47,5.31-2.1a21.3,21.3,0,0,0,6.78-4.36c2-1.71,4.1-3.3,6.11-5a38.5,38.5,0,0,0,6.67-7.37,22.4,22.4,0,0,0,3.65-7.07,37.3,37.3,0,0,1,1.65-3.88c.57-1.45,1-2.93,1.59-4.38,1.06-2.76.89-5.69,1.23-8.54.14-1.23.47-2.44.49-3.66.06-3.59,0-7.18,0-10.77,0-1.6-.1-1.63-1.7-1.59-1,0-2.09,0-3.13,0-1.72-.06-3.43-.15-5.15-.23-.25,0-.58-.1-.75,0-1.47,1-2.75-.47-4.15-.32-.1,0-.28-.43-.36-.69C158.07,80,158,79.49,157.82,78.87Zm-95.3,23.52a1.92,1.92,0,0,1,2.82-1.57,1.24,1.24,0,0,0,1.46,0c.57-.35,1.12-.73,1.76-1.15l.47.22a23.23,23.23,0,0,0,1.5-2.39c.23-.49,1.11-.77.62-1.59,0,0,.48-.43.74-.66l.23.2a2.82,2.82,0,0,0,.21-2.37c-.28-.89.3-2.13-.12-2.88a5,5,0,0,1-.46-3.41,1.07,1.07,0,0,0-.16-.59c-.62-1.09-1.3-2.14-1.85-3.26a15.49,15.49,0,0,0-1-2.6,19.79,19.79,0,0,0-3-3.06A51.89,51.89,0,0,0,61.33,74a36.68,36.68,0,0,0-3.87-2.28c-1.6-.83-3.05-2.08-5.06-1.93-.35,1.13-.93,2.15-2.23,2.27-.33,0-1-.67-1-1.11a8.67,8.67,0,0,1,.2-2.3c-.54-.14-1.16-.33-1.78-.45-1.65-.33-3.29-.72-5-.92-1.21-.15-2.46.09-3.67-.07a19.14,19.14,0,0,0-7,.61,10.16,10.16,0,0,0-1.79.42,21.72,21.72,0,0,0-5.35,3.86A10.35,10.35,0,0,0,22,75.35c-2.3,5.62-.74,10.78,2.79,15.29a23.19,23.19,0,0,0,6.89,6.13c1.55.85,2.77,2.24,4.54,2.77a19.48,19.48,0,0,1,2.69,1.1c2.46,1.15,4.89,2.35,7.36,3.47a7.38,7.38,0,0,0,2,.51c.87.11,1.76.1,2.65.16.51,0,1,.09,1.55.14a24.34,24.34,0,0,0-2.57-1.57c-.3-.2-.34-.79-.5-1.2a3.09,3.09,0,0,1,1.1-.13,20.21,20.21,0,0,0,5.12.89C57.92,103,60.22,103.29,62.52,102.39ZM199.38,70c.84-1.25,1.67-2.58,2.59-3.84a13.44,13.44,0,0,1,1.43-1.39,3,3,0,0,0,.69-.9c.18-.45.11-1,.35-1.43.76-1.25,1.65-2.41,2.42-3.65a9.16,9.16,0,0,0,.82-1.9c.34-1,.67-2,.92-3a28.38,28.38,0,0,0,.52-3c0-.19-.2-.48-.38-.63-.94-.72-1.87-1.45-2.86-2.1a7.62,7.62,0,0,0-1.79-.81c-.49-.16-1.06-.08-1.54-.25-1.26-.44-2.48-1-3.73-1.43-.46-.16-1-.07-1.46-.3-1.43-.8-2.66-2.22-4.59-1.34-.06,0-.14,0-.21,0a27,27,0,0,0-3.33-.31c-2.65.09-5.28.29-7.92.48a6.43,6.43,0,0,0-1.34.34c-1.06.31-2.1.68-3.17.95-2,.48-4,.78-5.86,1.39a34.38,34.38,0,0,0-4.32,2c-.9.44-1.77.92-2.68,1.4a5.2,5.2,0,0,0,.36.69c1.54,2.21,3.19,4.36,4.62,6.64A69,69,0,0,1,173,65a31.49,31.49,0,0,1,1.74,5.69c.59,2.36,1.05,4.75,1.55,7.13.13.64.41.84,1.07.68A24.87,24.87,0,0,1,180,78c.91-.14,1.85-.17,2.74-.38s1.75-.61,2.63-.88,1.87-.41,2.75-.76c1.38-.54,2.7-1.22,4.06-1.8.37-.15.88,0,1.21-.25,1.06-.69,2.35-1.11,3-2.37.08-.15.47-.12.69-.23.84-.4,1.67-.82,2.51-1.24,0,0,0-.07,0-.1S199.29,70,199.38,70ZM115.4,3.8a34.53,34.53,0,0,1-4,.3A9,9,0,0,0,106,5.3a1.7,1.7,0,0,1-.73.13A15.66,15.66,0,0,0,100,7.29a7.35,7.35,0,0,0-1.58,1.53c-.66.67-1.32,1.35-2,2a7.85,7.85,0,0,0-.79.73,20.43,20.43,0,0,0-2.56,3.51,25.86,25.86,0,0,0-1.29,4.5,1.63,1.63,0,0,0,.06.72c.23,1.15.39,2.32.71,3.45.59,2,.24,4.26,1.52,6.14.77,1.13,1.37,2.38,2.1,3.67l.75-1.4.38,0c.17,1.19.35,2.38.53,3.54,1.93-.48,3.68-.94,5.44-1.36,1.16-.28,2.33-.51,3.5-.73.38-.07.79,0,1.17,0,1.35-.21,2.68-.5,4-.67,1-.14,2.12-.15,3.18-.25a.68.68,0,0,0,.47-.37,15.06,15.06,0,0,0,.86-3.1,29.39,29.39,0,0,1,1.31-7,5.47,5.47,0,0,0,.29-2.87c-.57-2.38.73-4.77-.15-7.11,0-.08.11-.2.11-.3a15.14,15.14,0,0,0-.4-3.79A30.1,30.1,0,0,0,115.4,3.8ZM91.82,94l-.07.15c-.42,0-.94,0-1.24.16a4.87,4.87,0,0,0-2.31,4.12c.18,1.14,0,2.47,1.07,3.41a8.76,8.76,0,0,1,1.06,1.52A7.32,7.32,0,0,0,91.61,105a8.24,8.24,0,0,0,2.19,1.12c1.11.4,2.26.7,3.41,1a.77.77,0,0,0,.61-.34c1.23-2.13,2-4.4,1.09-6.83a12,12,0,0,0-1.94-3A6.88,6.88,0,0,0,95,95,17.93,17.93,0,0,0,91.82,94Zm41.9-29.26a2,2,0,0,1-.56.94c-1.12.92-2.34,1.72-3.41,2.69-1.58,1.41-3.16,2.72-5.46,2.61-1,0-2.2.22-3.09-.16a5.6,5.6,0,0,1-3.08-2.43c-.82-1.62-2-3.09-1.81-5.09a2.44,2.44,0,0,0,0-1.17,6.63,6.63,0,0,0-1-1.29l-1.07,1.09c-.62.65-.25,1.51-.48,2.23A3.65,3.65,0,0,0,114,67.1c.65,1.24,1.38,2.45,2,3.72a2.09,2.09,0,0,1-.38,2.65,11.85,11.85,0,0,0-1.8,2.78,1.77,1.77,0,0,0,.87,2.08c.64.29,2.26.07,2.34-.41.3-1.7,1.88-2.43,2.7-3.73.18-.29.81-.41,1.24-.42,1.38,0,2.76.12,4.14.1.73,0,1.26.21,1.08.93a12.48,12.48,0,0,0,.11,4.91c.2,1.4,1.37.6,2.08.86a2,2,0,0,0,.52-1c.15-1.45-.44-2.94.25-4.38a2.66,2.66,0,0,0,.36-1.46c-.15-.73.24-.81.71-1.09A5.45,5.45,0,0,0,132.3,71a16.84,16.84,0,0,1,2-2.52,26.36,26.36,0,0,0,1.78-2.67,17.23,17.23,0,0,0,.79-1.79c-.35-1.09-1.73-.65-2.82-1.22C133.93,63.54,133.88,64.15,133.72,64.73ZM82.38,57.15c-.38-.88-.91-1.7-1.35-2.55a5,5,0,0,1-.52-4,1.37,1.37,0,0,0-.83-1.91,1.2,1.2,0,0,0-1.72,1,18.35,18.35,0,0,0,0,4c.1.94.23,1.73-.75,2.26-.14.07-.16.35-.24.53a6.72,6.72,0,0,1-.4.86c-.61,1.09-2.1,1.38-2.35,2.88-.17,1,.11,1.52,1,1.84s1.49.66,2-.59c.71-1.87,2.46-2.36,3.74-1.4A17.18,17.18,0,0,0,84.38,62c.65.28.83.53.68,1.18a23.76,23.76,0,0,0-.46,2.52C84.48,66.7,85,67.12,86,67c1.31-.16,1.6-1.2,1.93-2.19A8.53,8.53,0,0,1,91.57,60a46.76,46.76,0,0,0,4.79-3.52,23.54,23.54,0,0,0,2.53-2.65c.46-.53.53-1.25-.11-1.61a1.78,1.78,0,0,0-1.51.06c-.89.51-1.16,1.65-2.1,2.22S94,55.91,92.9,56.11a3.83,3.83,0,0,0-2.09,1.22c-1.3,1.5-3.21,1-4.45,1.66C84.38,59,82.85,58.22,82.38,57.15Zm-48,23c.3.89-.3,1.47-.58,2.17a1.9,1.9,0,0,0-.07.54,18.6,18.6,0,0,1-.22,3.43c-.32,1.34,1.39,1.32,1.36,2.37,0,0,.19.1.29.1a14.83,14.83,0,0,0,2.11-.08,1.32,1.32,0,0,0,.92-.61c.57-1.77,1.08-3.57,1.54-5.37A18.91,18.91,0,0,0,40,80.55a4.11,4.11,0,0,0-.4-3.16,3.07,3.07,0,0,0-1.82-1.11c-.75-.09-1.3.53-1.46,1.36a2.49,2.49,0,0,1-.35.76c-.2.34-.42.67-.59.94C35,79.65,34.38,80,34.42,80.14Zm25.36,5.37a2.35,2.35,0,0,0-.17-.82c-.65-1-1.32-2.07-2-3.08s-2.46-1.39-3-.49a6.66,6.66,0,0,0-1.17,3.67,18.74,18.74,0,0,0,1.86,6.34,3.29,3.29,0,0,0,2,1.37,1.92,1.92,0,0,0,1.61-.9,10.5,10.5,0,0,0,.73-3c.16-1,.19-2,.28-3.07Z"/></g></g></svg>